<?xml version="1.0" encoding="UTF-8"?>
<svg version="1.1" xmlns="http://www.w3.org/2000/svg" width="64" height="64">
<path d="M0 0 C14.85 0 29.7 0 45 0 C45 10.56 45 21.12 45 32 C41.08125 31.979375 37.1625 31.95875 33.125 31.9375 C22.35846981 32.05217696 22.35846981 32.05217696 13.5625 37.5625 C12.35785251 39.02773537 11.1645614 40.50270677 10 42 C9.34 42 8.68 42 8 42 C8 38.7 8 35.4 8 32 C5.36 32 2.72 32 0 32 C0 21.44 0 10.88 0 0 Z " fill="#218AE6" transform="translate(5,9)"/>
<path d="M0 0 C1.98 0 3.96 0 6 0 C6 10.56 6 21.12 6 32 C3.36 32 0.72 32 -2 32 C-2 35.3 -2 38.6 -2 42 C-5.76051896 40.11974052 -6.51407711 39.41439266 -9 36.4375 C-15.43685538 30.47103021 -25.75276724 31.90692409 -34 32 C-33.04578192 30.85073734 -32.08647955 29.70569459 -31.125 28.5625 C-30.59132813 27.92441406 -30.05765625 27.28632812 -29.5078125 26.62890625 C-27.48122588 24.43956267 -26.47182932 24.02123917 -23.47802734 23.88647461 C-22.4411377 23.89171143 -21.40424805 23.89694824 -20.3359375 23.90234375 C-19.21445312 23.90556641 -18.09296875 23.90878906 -16.9375 23.91210938 C-15.761875 23.92048828 -14.58625 23.92886719 -13.375 23.9375 C-12.19164063 23.94201172 -11.00828125 23.94652344 -9.7890625 23.95117188 C-6.85932493 23.96298533 -3.92968728 23.97945742 -1 24 C-1.01023193 23.11441406 -1.02046387 22.22882812 -1.03100586 21.31640625 C-1.10319764 14.14423641 -0.79982488 7.12701095 0 0 Z " fill="#218BE6" transform="translate(53,19)"/>
</svg>
