<?xml version="1.0" encoding="UTF-8"?>
<svg version="1.1" xmlns="http://www.w3.org/2000/svg" width="84" height="104">
<path d="M0 0 C27.72 0 55.44 0 84 0 C84 34.32 84 68.64 84 104 C56.28 104 28.56 104 0 104 C0 69.68 0 35.36 0 0 Z " fill="#FCFDFD" transform="translate(0,0)"/>
<path d="M0 0 C5.79610784 4.01269005 10.64684207 8.51233853 15.55761719 13.52856445 C18.98222393 17.01794046 22.50161036 20.29408747 26.28125 23.40234375 C28.44676603 25.41528933 30.19648527 27.66254999 32 30 C17.93327041 44.24453938 17.93327041 44.24453938 11.8125 49.40234375 C8.93459216 51.93912027 6.30881986 54.71962537 3.6640625 57.49609375 C2 59 2 59 0 59 C-1.63283431 43.8591728 -1.63283431 43.8591728 1.04736328 39.16601562 C3.86950771 35.80055406 7.23077752 33.2524783 11 31 C11.66 31 12.32 31 13 31 C12.15356901 29.95203782 11.29723808 28.91207308 10.4375 27.875 C9.89738281 27.21886719 9.35726563 26.56273438 8.80078125 25.88671875 C7.00829566 24.00869155 5.33592234 23.00684877 3.125 21.6875 C0.95723209 19.97710729 0.10900574 18.72153081 -0.30517578 15.97998047 C-0.61366229 10.63840942 -0.35221277 5.33350767 0 0 Z " fill="#171614" transform="translate(15,19)"/>
<path d="M0 0 C2.74792674 2.62635022 5.00763785 5.25499961 7.12890625 8.40625 C7.96905273 9.64568359 7.96905273 9.64568359 8.82617188 10.91015625 C9.39916016 11.76480469 9.97214844 12.61945313 10.5625 13.5 C11.70887591 15.19842955 12.85598598 16.89636386 14.00390625 18.59375 C14.50736572 19.34333984 15.0108252 20.09292969 15.52954102 20.86523438 C16.53604588 22.32644615 17.59198427 23.754478 18.68725586 25.15039062 C20 27 20 27 20 29 C15.90935952 29.92022618 12.18181184 30.49994264 8 30 C4.88662486 27.43908115 2.94248856 24.50879095 1 21 C-1.7782778 23.56588879 -3.33213393 25.59140336 -4.75 29.0625 C-6.11641867 31.42187886 -7.20084833 32.70715943 -9.78955078 33.65576172 C-14.46658791 34.83731749 -19.2120816 35.4598823 -24 36 C-22.38097408 31.05618871 -19.51487679 27.2312592 -16.5 23.0625 C-15.97116211 22.32265869 -15.44232422 21.58281738 -14.89746094 20.82055664 C-13.80687694 19.29579491 -12.71409047 17.77260616 -11.61914062 16.25097656 C-10.06878156 14.09562214 -8.52516225 11.9356416 -6.984375 9.7734375 C-4.66054206 6.51253595 -2.33178805 3.25521739 0 0 Z " fill="#0663AF" transform="translate(50,52)"/>
<path d="M0 0 C1.72945653 0.14235457 3.45855654 0.28904382 5.1875 0.4375 C6.63189453 0.55931641 6.63189453 0.55931641 8.10546875 0.68359375 C9.06066406 0.78800781 10.01585937 0.89242188 11 1 C11.8559375 1.0515625 12.711875 1.103125 13.59375 1.15625 C17.23784463 2.43404942 18.31142661 4.84043267 20.3125 8.0625 C21.00988281 9.16722656 21.70726563 10.27195312 22.42578125 11.41015625 C23.20501953 12.69212891 23.20501953 12.69212891 24 14 C26.97549085 11.10492782 29.49642139 8.33810482 32 5 C37.94 5.99 37.94 5.99 44 7 C40.87874645 12.73635788 37.28103534 17.97540707 33.4375 23.25 C32.86064453 24.05179688 32.28378906 24.85359375 31.68945312 25.6796875 C29.28084818 29.0022844 26.97837062 32.16176845 24 35 C18.19493288 27.1850547 12.46570014 19.32648521 6.9375 11.3125 C6.47303467 10.6421875 6.00856934 9.971875 5.5300293 9.28125 C3.46573697 6.27083966 1.49834635 3.34376727 0 0 Z " fill="#0763AF" transform="translate(26,10)"/>
<path d="M0 0 C1.08380242 12.40351654 1.08380242 12.40351654 -1.59375 16.34765625 C-3.5625 18.125 -3.5625 18.125 -5.56640625 19.5703125 C-6.27603516 20.27800781 -6.27603516 20.27800781 -7 21 C-7.03130578 23.08423332 -7.03130578 23.08423332 -6 25 C-4.989375 25.78375 -3.97875 26.5675 -2.9375 27.375 C-0.33069051 29.76405691 -0.0114499 30.89842467 0.39453125 34.5 C0.37680331 38.01722245 0.25943932 41.49276476 0 45 C-5.48561029 40.38130555 -10.73323542 35.55723361 -15.9375 30.625 C-17.10635742 29.52091797 -17.10635742 29.52091797 -18.29882812 28.39453125 C-20.20057987 26.5977842 -22.10093488 24.79958571 -24 23 C-21.2649891 19.62948743 -18.6703365 16.51784787 -15.3125 13.75 C-10.95931036 10.05311185 -6.99132151 6.02622402 -3.00390625 1.94140625 C-1 0 -1 0 0 0 Z " fill="#191816" transform="translate(77,26)"/>
<path d="M0 0 C1.49047852 1.28759766 1.49047852 1.28759766 3 3 C3.17087634 6.81185671 2.92891627 10.52770003 2.71484375 14.3359375 C3.04277512 18.54963103 4.07918161 20.0391704 7 23 C4.10976783 21.70437868 2.01428555 20.46419842 0 18 C-0.34057617 16.00708008 -0.34057617 16.00708008 -0.29296875 13.76953125 C-0.28330078 12.96708984 -0.27363281 12.16464844 -0.26367188 11.33789062 C-0.23853516 10.50451172 -0.21339844 9.67113281 -0.1875 8.8125 C-0.17396484 7.96751953 -0.16042969 7.12253906 -0.14648438 6.25195312 C-0.11115799 4.16769616 -0.05735139 2.08376723 0 0 Z " fill="#2B2928" transform="translate(15,19)"/>
<path d="M0 0 C1.65497356 3.30994713 1.10084335 6.99123 1.0625 10.625 C1.05798828 11.42679688 1.05347656 12.22859375 1.04882812 13.0546875 C1.03703168 15.03649006 1.01909605 17.01825433 1 19 C0.01 19.33 -0.98 19.66 -2 20 C-2.05379226 17.04142591 -2.09357093 14.08382279 -2.125 11.125 C-2.14175781 10.28324219 -2.15851562 9.44148438 -2.17578125 8.57421875 C-2.18222656 7.76855469 -2.18867188 6.96289062 -2.1953125 6.1328125 C-2.21102295 5.01737061 -2.21102295 5.01737061 -2.22705078 3.87939453 C-2 2 -2 2 0 0 Z " fill="#302F2D" transform="translate(17,58)"/>
<path d="M0 0 C0.66 0 1.32 0 2 0 C2 4.62 2 9.24 2 14 C-4.875 8.25 -4.875 8.25 -6 6 C-2.125 7.875 -2.125 7.875 -1 9 C-0.67 6.03 -0.34 3.06 0 0 Z " fill="#2F2D2B" transform="translate(75,57)"/>
</svg>
